# Apple ModelIO OBJ File: map
mtllib map.mtl
g Box001
v -25.4417 0 -8.6108
v -25.1121 0 -9.3177
v -8.5463 0 -0.7323
v -7.9083 0 -1.2951
v -25.4417 50.9325 -8.6108
v -8.5463 50.9325 -0.7323
v -25.1121 50.9325 -9.3177
v -7.9083 50.9325 -1.2951
v -7.8693 0 -0.4166
v -7.2313 0 -0.9794
v -7.2313 50.9325 -0.9794
v -7.8693 50.9325 -0.4166
v 5.8608 0 -13.4394
v 5.8608 50.9325 -13.4394
v 6.5378 50.9325 -13.1237
v 6.5378 0 -13.1237
v 5.41 50.9325 -13.0023
v 5.41 0 -13.0023
v 6.087 50.9325 -12.6866
v 6.087 0 -12.6866
v 24.725 0 -4.6428
v 24.725 50.9325 -4.6428
v 24.4743 50.9325 -4.1051
v 24.4743 0 -4.1051
vn 0 -1 -0
vn 0 1 -0
vn -0 0 1
vn 0.9165 0 0.4001
vn 0 0 -1
vn -1 0 -0
vn -0.9158 0 -0.4017
vn 0.9158 0 0.4017
vn -0.9343 0 -0.3565
vn 1 0 -0
vn -0.0003 0 1
vt 0.874 0.5458
vt 0.8666 0.5412
vt 0.9832 0.371
vt 0.9779 0.3632
vt 0.8019 0.8141
vt 0.8019 0.608
vt 0.8105 0.8141
vt 0.8105 0.6042
vt 0.4365 0.5826
vt 0.2303 0.5826
vt 0.2303 0.0194
vt 0.4365 0.0194
vt 0.5638 0.8113
vt 0.5638 0.8199
vt 0.0005 0.8199
vt 0.0005 0.8113
vt 0.0099 0.0194
vt 0.2199 0.0194
vt 0.2199 0.5826
vt 0.0099 0.5826
vt 0.5732 0.0005
vt 0.5732 0.0091
vt 0.0099 0.0091
vt 0.0099 0.0005
vt 0.9823 0.3562
vt 0.9876 0.364
vt 0.6691 0.0194
vt 0.6691 0.5826
vt 0.6608 0.5826
vt 0.6608 0.0194
vt 0.8019 0.5997
vt 0.8105 0.5959
vt 0.2221 0.5826
vt 0.2221 0.0194
vt 0.8607 0.5638
vt 0.6811 0.5638
vt 0.6811 0.0005
vt 0.8607 0.0005
vt 0.9901 0.5172
vt 0.9901 0.5254
vt 0.5638 0.9995
vt 0.0005 0.9995
vt 0.8673 0.2012
vt 0.8717 0.1942
vt 0.6746 0.5638
vt 0.6746 0.0005
vt 0.9966 0.5147
vt 0.9966 0.5229
vt 0.0071 0.0052
vt 0.0071 0.5685
vt 0.0005 0.5685
vt 0.0005 0.0052
vt 0.8631 0.1957
vt 0.8675 0.1887
vt 0.4389 0.5826
vt 0.4389 0.0194
vt 0.99 0.2928
vt 0.9966 0.2928
vt 0.0005 0.585
vt 0.5638 0.585
vt 0.5638 0.8094
vt 0.0005 0.8094
vt 0.9907 0.004
vt 0.9851 0.0005
usemtl 
f 1/1/1 2/2/1 3/3/1
f 2/2/1 4/4/1 3/3/1
f 5/5/2 6/6/2 7/7/2
f 6/6/2 8/8/2 7/7/2
f 1/9/3 3/10/3 6/11/3
f 1/9/3 6/11/3 5/12/3
f 9/13/4 10/14/4 11/15/4
f 9/13/4 11/15/4 12/16/4
f 4/17/5 2/18/5 7/19/5
f 4/17/5 7/19/5 8/20/5
f 2/21/6 1/22/6 5/23/6
f 2/21/6 5/23/6 7/24/6
f 3/3/1 4/4/1 10/25/1
f 3/3/1 10/25/1 9/26/1
f 13/27/5 14/28/5 15/29/5
f 13/27/5 15/29/5 16/30/5
f 8/8/2 6/6/2 12/31/2
f 8/8/2 12/31/2 11/32/2
f 6/11/3 3/10/3 9/33/3
f 6/11/3 9/33/3 12/34/3
f 8/35/7 17/36/7 18/37/7
f 8/35/7 18/37/7 4/38/7
f 11/32/2 19/39/2 17/40/2
f 11/32/2 17/40/2 8/8/2
f 10/14/8 20/41/8 19/42/8
f 10/14/8 19/42/8 11/15/8
f 4/4/1 18/43/1 20/44/1
f 4/4/1 20/44/1 10/25/1
f 14/45/9 13/46/9 18/37/9
f 14/45/9 18/37/9 17/36/9
f 15/47/2 14/48/2 19/39/2
f 14/48/2 17/40/2 19/39/2
f 21/49/10 22/50/10 23/51/10
f 21/49/10 23/51/10 24/52/10
f 13/53/1 16/54/1 20/44/1
f 13/53/1 20/44/1 18/43/1
f 16/30/5 15/29/5 22/55/5
f 16/30/5 22/55/5 21/56/5
f 15/47/2 19/39/2 23/57/2
f 15/47/2 23/57/2 22/58/2
f 19/59/11 20/60/11 24/61/11
f 19/59/11 24/61/11 23/62/11
f 20/44/1 16/54/1 24/63/1
f 16/54/1 21/64/1 24/63/1
s off
