# Apple ModelIO OBJ File: FirstAid
mtllib FirstAid.mtl
g Box001_default
v 16.1877 0.2509 -0.0683
v 16.1877 0.2509 0.0683
v -16.1877 0.2509 0.0683
v -16.1877 0.2509 -0.0683
v -16.1877 19.2022 -0.0683
v -16.1877 19.2022 0.0683
v 16.1877 19.2022 0.0683
v 16.1877 19.2022 -0.0683
v 16.3057 0.8813 4.7463
v 16.3057 18.5718 4.7463
v -16.3057 18.5718 4.7463
v -16.3057 0.8813 4.7463
v 17.021 18.4679 -0.0683
v 17.021 18.4679 0.0683
v 17.021 0.9852 0.0683
v 17.021 0.9852 -0.0683
v -16.3057 0.8813 -4.7463
v -16.3057 18.5718 -4.7463
v 16.3057 18.5718 -4.7463
v 16.3057 0.8813 -4.7463
v -17.021 18.4679 0.0683
v -17.021 18.4679 -0.0683
v -17.021 0.9852 -0.0683
v -17.021 0.9852 0.0683
v -17.3057 0.8813 4.1719
v -16.3057 0 4.1719
v 16.3057 0 4.1719
v 17.3057 0.8813 4.1719
v -17.3057 0.8813 -4.1719
v -16.3057 0 -4.1719
v 16.3057 0 -4.1719
v 17.3057 0.8813 -4.1719
v -16.3057 19.4531 4.1719
v -17.3057 18.5718 4.1719
v 17.3057 18.5718 4.1719
v 16.3057 19.4531 4.1719
v -17.3057 18.5718 -4.1719
v -16.3057 19.4531 -4.1719
v 16.3057 19.4531 -4.1719
v 17.3057 18.5718 -4.1719
v 16.3057 0 -0.0683
v -16.3057 0 -0.0683
v -16.3057 0 0.0683
v 16.3057 0 0.0683
v -16.3057 19.4531 -0.0683
v 16.3057 19.4531 -0.0683
v 16.3057 19.4531 0.0683
v -16.3057 19.4531 0.0683
v 17.3057 18.5718 -0.0683
v 17.3057 0.8813 -0.0683
v 17.3057 0.8813 0.0683
v 17.3057 18.5718 0.0683
v -17.3057 18.5718 0.0683
v -17.3057 0.8813 0.0683
v -17.3057 0.8813 -0.0683
v -17.3057 18.5718 -0.0683
vn 0 -1 -0
vn 0 1 -0
vn 0 0 1
vn 1 0 -0
vn 0 0 -1
vn -1 0 -0
vn -0.5774 -0.5774 0.5774
vn 0.5774 -0.5774 0.5774
vn -0.5774 -0.5774 -0.5774
vn 0.5774 -0.5774 -0.5774
vn -0.5774 0.5774 0.5774
vn 0.5774 0.5774 0.5774
vn -0.5774 0.5774 -0.5774
vn 0.5774 0.5774 -0.5774
vn -0.7071 -0.7071 -0
vn 0 -0.7071 -0.7071
vn 0.7071 -0.7071 -0
vn 0 -0.7071 0.7071
vn 0 0.7071 0.7071
vn 0.7071 0.7071 -0
vn 0 0.7071 -0.7071
vn -0.7071 0.7071 -0
vn 0.7071 0 0.7071
vn -0.7071 0 0.7071
vn 0.7071 0 -0.7071
vn -0.7071 0 -0.7071
vt 0.9545 0.4918
vt 0.9525 0.4918
vt 0.9525 0.0128
vt 0.9545 0.0128
vt 0.9479 0.0128
vt 0.95 0.0128
vt 0.95 0.4918
vt 0.9479 0.4918
vt 0.5728 0.5618
vt 0.311 0.5618
vt 0.311 0.0794
vt 0.5728 0.0794
vt 0.0261 0.6007
vt 0.0261 0.5987
vt 0.2848 0.5987
vt 0.2848 0.6007
vt 0.2753 0.5618
vt 0.0135 0.5618
vt 0.0135 0.0794
vt 0.2753 0.0794
vt 0.0261 0.5982
vt 0.0261 0.5962
vt 0.2848 0.5962
vt 0.2848 0.5982
vt 0.5728 0.0646
vt 0.5858 0.0794
vt 0.5858 0.5618
vt 0.5728 0.5766
vt 0.2753 0.5766
vt 0.2883 0.5618
vt 0.2883 0.0794
vt 0.2753 0.0646
vt 0.298 0.0794
vt 0.311 0.0646
vt 0.311 0.5766
vt 0.298 0.5618
vt 0.0135 0.5766
vt 0.0005 0.5618
vt 0.0005 0.0794
vt 0.0135 0.0646
vt 0.9525 0.0005
vt 0.9545 0.0005
vt 0.9545 0.5041
vt 0.9525 0.5041
vt 0.95 0.5041
vt 0.9479 0.5041
vt 0.9479 0.0005
vt 0.95 0.0005
vt 0.4978 0.9388
vt 0.4978 0.9995
vt 0.0153 0.9995
vt 0.0153 0.9388
vt 0.0199 0.0612
vt 0.0199 0.0005
vt 0.5023 0.0005
vt 0.5023 0.0612
vt 0.8839 0.0153
vt 0.9446 0.0153
vt 0.9446 0.4978
vt 0.8839 0.4978
vt 0.4978 0.8747
vt 0.4978 0.9354
vt 0.0153 0.9354
vt 0.0153 0.8747
vt 0.6813 0.0261
vt 0.742 0.0261
vt 0.742 0.2878
vt 0.6813 0.2878
vt 0.8032 0.2878
vt 0.7424 0.2878
vt 0.7424 0.0261
vt 0.8032 0.0261
vt 0.6201 0.0261
vt 0.6808 0.0261
vt 0.6808 0.2878
vt 0.6201 0.2878
vt 0.8643 0.2878
vt 0.8036 0.2878
vt 0.8036 0.0261
vt 0.8643 0.0261
vt 0.0005 0.9995
vt 0.0005 0.9388
vt 0.0051 0.0612
vt 0.0051 0.0005
vt 0.5171 0.0005
vt 0.5171 0.0612
vt 0.5125 0.9388
vt 0.5125 0.9995
vt 0.9446 0.5125
vt 0.8839 0.5125
vt 0.5125 0.8747
vt 0.5125 0.9354
vt 0.0005 0.9354
vt 0.0005 0.8747
vt 0.8839 0.0005
vt 0.9446 0.0005
vt 0.8787 0.4978
vt 0.875 0.496
vt 0.875 0.017
vt 0.8787 0.0153
vt 0.8657 0.5125
vt 0.8642 0.5083
vt 0.604 0.5125
vt 0.6055 0.5083
vt 0.5909 0.4978
vt 0.5946 0.496
vt 0.5909 0.0153
vt 0.5946 0.017
vt 0.604 0.0005
vt 0.6055 0.0047
vt 0.8657 0.0005
vt 0.8642 0.0047
vt 0.4978 0.5818
vt 0.496 0.5855
vt 0.017 0.5855
vt 0.0153 0.5818
vt 0.5125 0.5948
vt 0.5083 0.5964
vt 0.5125 0.8565
vt 0.5083 0.855
vt 0.4978 0.8696
vt 0.496 0.8659
vt 0.0153 0.8696
vt 0.017 0.8659
vt 0.0005 0.8565
vt 0.0047 0.855
vt 0.0005 0.5948
vt 0.0047 0.5964
usemtl default
f 1/1/1 2/2/1 3/3/1
f 3/3/1 4/4/1 1/1/1
f 5/5/2 6/6/2 7/7/2
f 7/7/2 8/8/2 5/5/2
f 9/9/3 10/10/3 11/11/3
f 11/11/3 12/12/3 9/9/3
f 13/13/4 14/14/4 15/15/4
f 15/15/4 16/16/4 13/13/4
f 17/17/5 18/18/5 19/19/5
f 19/19/5 20/20/5 17/17/5
f 21/21/6 22/22/6 23/23/6
f 23/23/6 24/24/6 21/21/6
f 12/12/7 25/25/7 26/26/7
f 27/27/8 28/28/8 9/9/8
f 29/29/9 17/17/9 30/30/9
f 31/31/10 20/20/10 32/32/10
f 11/11/11 33/33/11 34/34/11
f 35/35/12 36/36/12 10/10/12
f 37/37/13 38/38/13 18/18/13
f 19/19/14 39/39/14 40/40/14
f 4/4/15 3/3/15 24/41/15
f 24/41/15 23/42/15 4/4/15
f 17/17/16 20/20/16 31/31/16
f 31/31/16 30/30/16 17/17/16
f 2/2/17 1/1/17 16/43/17
f 16/43/17 15/44/17 2/2/17
f 9/9/18 12/12/18 26/26/18
f 26/26/18 27/27/18 9/9/18
f 11/11/19 10/10/19 36/36/19
f 36/36/19 33/33/19 11/11/19
f 8/8/20 7/7/20 14/45/20
f 14/45/20 13/46/20 8/8/20
f 19/19/21 18/18/21 38/38/21
f 38/38/21 39/39/21 19/19/21
f 6/6/22 5/5/22 22/47/22
f 22/47/22 21/48/22 6/6/22
f 28/28/23 35/35/23 10/10/23
f 10/10/23 9/9/23 28/28/23
f 34/34/24 25/25/24 12/12/24
f 12/12/24 11/11/24 34/34/24
f 20/20/25 19/19/25 40/40/25
f 40/40/25 32/32/25 20/20/25
f 29/29/26 37/37/26 18/18/26
f 18/18/26 17/17/26 29/29/26
f 31/49/1 41/50/1 42/51/1
f 42/51/1 30/52/1 31/49/1
f 26/53/1 43/54/1 44/55/1
f 44/55/1 27/56/1 26/53/1
f 38/57/2 45/58/2 46/59/2
f 46/59/2 39/60/2 38/57/2
f 36/61/2 47/62/2 48/63/2
f 48/63/2 33/64/2 36/61/2
f 40/65/4 49/66/4 50/67/4
f 50/67/4 32/68/4 40/65/4
f 28/69/4 51/70/4 52/71/4
f 52/71/4 35/72/4 28/69/4
f 34/73/6 53/74/6 54/75/6
f 54/75/6 25/76/6 34/73/6
f 29/77/6 55/78/6 56/79/6
f 56/79/6 37/80/6 29/77/6
f 30/52/15 42/51/15 55/81/15
f 55/81/15 29/82/15 30/52/15
f 25/83/15 54/84/15 43/54/15
f 43/54/15 26/53/15 25/83/15
f 27/56/17 44/55/17 51/85/17
f 51/85/17 28/86/17 27/56/17
f 32/87/17 50/88/17 41/50/17
f 41/50/17 31/49/17 32/87/17
f 39/60/20 46/59/20 49/89/20
f 49/89/20 40/90/20 39/60/20
f 35/91/20 52/92/20 47/62/20
f 47/62/20 36/61/20 35/91/20
f 33/64/22 48/63/22 53/93/22
f 53/93/22 34/94/22 33/64/22
f 37/95/22 56/96/22 45/58/22
f 45/58/22 38/57/22 37/95/22
f 41/97/3 1/98/3 4/99/3
f 4/99/3 42/100/3 41/97/3
f 41/97/3 50/101/3 16/102/3
f 16/102/3 1/98/3 41/97/3
f 49/103/3 13/104/3 16/102/3
f 16/102/3 50/101/3 49/103/3
f 46/105/3 8/106/3 13/104/3
f 13/104/3 49/103/3 46/105/3
f 45/107/3 5/108/3 8/106/3
f 8/106/3 46/105/3 45/107/3
f 45/107/3 56/109/3 22/110/3
f 22/110/3 5/108/3 45/107/3
f 55/111/3 23/112/3 22/110/3
f 22/110/3 56/109/3 55/111/3
f 42/100/3 4/99/3 23/112/3
f 23/112/3 55/111/3 42/100/3
f 43/113/5 3/114/5 2/115/5
f 2/115/5 44/116/5 43/113/5
f 43/113/5 54/117/5 24/118/5
f 24/118/5 3/114/5 43/113/5
f 53/119/5 21/120/5 24/118/5
f 24/118/5 54/117/5 53/119/5
f 48/121/5 6/122/5 21/120/5
f 21/120/5 53/119/5 48/121/5
f 47/123/5 7/124/5 6/122/5
f 6/122/5 48/121/5 47/123/5
f 47/123/5 52/125/5 14/126/5
f 14/126/5 7/124/5 47/123/5
f 51/127/5 15/128/5 14/126/5
f 14/126/5 52/125/5 51/127/5
f 44/116/5 2/115/5 15/128/5
f 15/128/5 51/127/5 44/116/5
s off
g Box002_default
v 8.0152 19.2913 -0.9241
v 11.6698 19.2913 -0.9241
v 11.6698 19.2913 0.9241
v 8.0152 19.2913 0.9241
v 11.6698 19.8383 0.9241
v 11.6698 19.8383 -0.9241
v 8.0152 19.8383 -0.9241
v 8.0152 19.8383 0.9241
vn 0 -1 -0
vn 0 1 -0
vn 0 0 1
vn 1 0 -0
vn 0 0 -1
vn -1 0 -0
vt 0.5269 0.0051
vt 0.5809 0.0051
vt 0.5809 0.0324
vt 0.5269 0.0324
vt 0.5725 0.6679
vt 0.5452 0.6679
vt 0.5452 0.6138
vt 0.5725 0.6138
vt 0.7821 0.5223
vt 0.7821 0.5763
vt 0.774 0.5763
vt 0.774 0.5223
vt 0.7363 0.5452
vt 0.7363 0.5725
vt 0.7282 0.5725
vt 0.7282 0.5452
vt 0.5269 0.0371
vt 0.5809 0.0371
vt 0.5809 0.0452
vt 0.5269 0.0452
vt 0.9663 0.3209
vt 0.9936 0.3209
vt 0.9936 0.329
vt 0.9663 0.329
usemtl default
f 57/129/27 58/130/27 59/131/27
f 59/131/27 60/132/27 57/129/27
f 61/133/28 62/134/28 63/135/28
f 63/135/28 64/136/28 61/133/28
f 60/137/29 59/138/29 61/139/29
f 61/139/29 64/140/29 60/137/29
f 59/141/30 58/142/30 62/143/30
f 62/143/30 61/144/30 59/141/30
f 58/145/31 57/146/31 63/147/31
f 63/147/31 62/148/31 58/145/31
f 57/149/32 60/150/32 64/151/32
f 64/151/32 63/152/32 57/149/32
s off
g Box003_default
v -11.6698 19.2913 -0.9241
v -8.0152 19.2913 -0.9241
v -8.0152 19.2913 0.9241
v -11.6698 19.2913 0.9241
v -8.0152 19.8383 0.9241
v -8.0152 19.8383 -0.9241
v -11.6698 19.8383 -0.9241
v -11.6698 19.8383 0.9241
vn 0 -1 -0
vn 0 1 -0
vn 0 0 1
vn 1 0 -0
vn 0 0 -1
vn -1 0 -0
vt 0.9844 0.4033
vt 0.9844 0.4573
vt 0.9571 0.4573
vt 0.9571 0.4033
vt 0.5763 0.7649
vt 0.5763 0.7922
vt 0.5223 0.7922
vt 0.5223 0.7649
vt 0.5269 0.0554
vt 0.5809 0.0554
vt 0.5809 0.0635
vt 0.5269 0.0635
vt 0.5223 0.8381
vt 0.5496 0.8381
vt 0.5496 0.8462
vt 0.5223 0.8462
vt 0.5269 0.0463
vt 0.5809 0.0463
vt 0.5809 0.0544
vt 0.5269 0.0544
vt 0.9663 0.179
vt 0.9936 0.179
vt 0.9936 0.1871
vt 0.9663 0.1871
usemtl default
f 65/153/33 66/154/33 67/155/33
f 67/155/33 68/156/33 65/153/33
f 69/157/34 70/158/34 71/159/34
f 71/159/34 72/160/34 69/157/34
f 68/161/35 67/162/35 69/163/35
f 69/163/35 72/164/35 68/161/35
f 67/165/36 66/166/36 70/167/36
f 70/167/36 69/168/36 67/165/36
f 66/169/37 65/170/37 71/171/37
f 71/171/37 70/172/37 66/169/37
f 65/173/38 68/174/38 72/175/38
f 72/175/38 71/176/38 65/173/38
s off
g Box004_default
v 4.4249 23.5105 -1.2129
v -4.4249 23.5105 -1.2129
v -4.4249 23.5105 1.2129
v 4.4249 23.5105 1.2129
v 5.9395 21.866 -1.3676
v 5.9395 21.866 1.3676
v 5.9395 19.1923 1.3676
v 5.9395 19.1923 -1.3676
v -5.9395 21.866 1.3676
v -5.9395 21.866 -1.3676
v -5.9395 19.1923 -1.3676
v -5.9395 19.1923 1.3676
v 4.4249 19.1923 1.3676
v 4.4249 19.1923 -1.3676
v -4.4249 19.1923 -1.3676
v -4.4249 19.1923 1.3676
v 5.8248 23.5105 1.2129
v 5.8248 23.5105 -1.2129
v -5.8248 23.5105 -1.2129
v -5.8248 23.5105 1.2129
v 4.4249 21.866 1.3676
v -4.4249 23.3558 1.3676
v -5.9395 23.3558 1.3676
v -4.4249 21.866 1.3676
v -4.4249 21.866 -1.3676
v 4.4249 23.3558 -1.3676
v 5.9395 23.3558 -1.3676
v 4.4249 21.866 -1.3676
v 4.4249 23.3558 1.3676
v 5.9395 23.3558 1.3676
v -4.4249 23.3558 -1.3676
v -5.9395 23.3558 -1.3676
vn 0 1 -0
vn 1 0 -0
vn -1 0 -0
vn 0 -1 -0
vn 0 0 1
vn 0 0 -1
vn 0 0.7071 0.7071
vn 0.7071 0.7071 -0
vn 0 0.7071 -0.7071
vn -0.7071 0.7071 -0
vt 0.9594 0.1538
vt 0.9594 0.0229
vt 0.9953 0.0229
vt 0.9953 0.1538
vt 0.6473 0.5856
vt 0.6473 0.5452
vt 0.6869 0.5452
vt 0.6869 0.5856
vt 0.9976 0.3696
vt 0.9571 0.3696
vt 0.9571 0.33
vt 0.9976 0.33
vt 0.7186 0.5856
vt 0.6962 0.5856
vt 0.6962 0.5452
vt 0.7186 0.5452
vt 0.5452 0.6779
vt 0.5676 0.6779
vt 0.5676 0.7184
vt 0.5452 0.7184
vt 0.9953 0.1745
vt 0.9594 0.1745
vt 0.9594 0.0022
vt 0.9953 0.0022
vt 0.5955 0.5397
vt 0.6179 0.5397
vt 0.6179 0.5793
vt 0.5955 0.5793
vt 0.7488 0.5177
vt 0.7713 0.5177
vt 0.7713 0.5397
vt 0.7488 0.5397
vt 0.5397 0.7397
vt 0.5793 0.7397
vt 0.5793 0.7621
vt 0.5397 0.7621
vt 0.5177 0.6088
vt 0.5177 0.5864
vt 0.5397 0.5864
vt 0.5397 0.6088
vt 0.6179 0.5177
vt 0.6253 0.5856
vt 0.6253 0.5452
vt 0.5177 0.7397
vt 0.9571 0.3916
vt 0.9976 0.3916
vt 0.5955 0.5177
vt 0.7713 0.5793
vt 0.7488 0.5793
vt 0.5177 0.7621
vt 0.5793 0.5864
vt 0.5793 0.6088
vt 0.9976 0.1882
vt 0.9976 0.3191
vt 0.9571 0.3191
vt 0.9571 0.1882
vt 0.5627 0.7969
vt 0.5627 0.8365
vt 0.5223 0.8365
vt 0.5223 0.7969
vt 0.8236 0.5223
vt 0.8236 0.5618
vt 0.7832 0.5618
vt 0.7832 0.5223
vt 0.9976 0.0005
vt 0.9976 0.0229
vt 0.623 0.5833
vt 0.623 0.5475
vt 0.9571 0.1762
vt 0.9571 0.1538
vt 0.9594 0.3939
vt 0.9953 0.3939
vt 0.9976 0.1538
vt 0.9976 0.1762
vt 0.9571 0.0229
vt 0.9571 0.0005
usemtl default
f 73/177/39 74/178/39 75/179/39
f 75/179/39 76/180/39 73/177/39
f 77/181/40 78/182/40 79/183/40
f 79/183/40 80/184/40 77/181/40
f 81/185/41 82/186/41 83/187/41
f 83/187/41 84/188/41 81/185/41
f 79/189/42 85/190/42 86/191/42
f 86/191/42 80/192/42 79/189/42
f 83/193/42 87/194/42 88/195/42
f 88/195/42 84/196/42 83/193/42
f 76/180/39 89/197/39 90/198/39
f 90/198/39 73/177/39 76/180/39
f 74/178/39 91/199/39 92/200/39
f 92/200/39 75/179/39 74/178/39
f 78/201/43 93/202/43 85/203/43
f 85/203/43 79/204/43 78/201/43
f 94/205/43 95/206/43 81/207/43
f 81/207/43 96/208/43 94/205/43
f 97/209/44 87/210/44 83/211/44
f 83/211/44 82/212/44 97/209/44
f 98/213/44 99/214/44 77/215/44
f 77/215/44 100/216/44 98/213/44
f 93/202/43 101/217/43 94/205/43
f 94/205/43 96/208/43 93/202/43
f 77/181/40 99/218/40 102/219/40
f 102/219/40 78/182/40 77/181/40
f 100/216/44 97/209/44 103/220/44
f 103/220/44 98/213/44 100/216/44
f 104/221/41 82/186/41 81/185/41
f 81/185/41 95/222/41 104/221/41
f 78/201/43 102/223/43 101/217/43
f 101/217/43 93/202/43 78/201/43
f 84/224/43 88/225/43 96/208/43
f 96/208/43 81/207/43 84/224/43
f 103/220/44 97/209/44 82/212/44
f 82/212/44 104/226/44 103/220/44
f 80/227/44 86/228/44 100/216/44
f 100/216/44 77/215/44 80/227/44
f 97/229/42 100/230/42 93/231/42
f 93/231/42 96/232/42 97/229/42
f 85/233/41 93/234/41 100/235/41
f 100/235/41 86/236/41 85/233/41
f 87/237/40 97/238/40 96/239/40
f 96/239/40 88/240/40 87/237/40
f 95/241/45 94/242/45 75/179/45
f 75/179/45 92/200/45 95/241/45
f 90/243/46 89/244/46 102/219/46
f 102/219/46 99/218/46 90/243/46
f 99/245/47 98/246/47 73/177/47
f 73/177/47 90/198/47 99/245/47
f 91/247/48 104/221/48 95/222/48
f 95/222/48 92/248/48 91/247/48
f 94/242/45 101/249/45 76/180/45
f 76/180/45 75/179/45 94/242/45
f 76/180/45 101/249/45 102/250/45
f 102/250/45 89/197/45 76/180/45
f 73/177/47 98/246/47 103/251/47
f 103/251/47 74/178/47 73/177/47
f 91/199/47 74/178/47 103/251/47
f 103/251/47 104/252/47 91/199/47
s off
